HIERARCHY
ROOT Hips
{
	OFFSET 0.000000 87.230942 0.000000
	CHANNELS 6 Xposition Yposition Zposition Xrotation Yrotation Zrotation
	JOINT Pelvis
	{
		OFFSET 0.000000 0.000000 0.000000
		CHANNELS 3 Xrotation Yrotation Zrotation
		JOINT LeftUpLeg
		{
			OFFSET 12.017000 -9.376404 -2.439400
			CHANNELS 3 Xrotation Yrotation Zrotation
			JOINT LeftLeg
			{
				OFFSET -0.007312 -32.846973 2.110600
				CHANNELS 3 Xrotation Yrotation Zrotation
				JOINT LeftFoot
				{
					OFFSET 0.007312 -32.065170 -0.570400
					CHANNELS 3 Xrotation Yrotation Zrotation
					JOINT LeftToeBase
					{
						OFFSET 0.728300 -11.045900 13.180700
						CHANNELS 3 Xrotation Yrotation Zrotation
						End Site
						{
							OFFSET 0.000000 17.212589 0.000000
						}
					}
				}
				JOINT LeftPantLeg
				{
					OFFSET 0.002788 -16.709013 -3.143600
					CHANNELS 3 Xrotation Yrotation Zrotation
					End Site
					{
						OFFSET -0.605125 24.528742 0.000000
					}
				}
			}
			JOINT Left_Butt
			{
				OFFSET -6.630234 1.326584 -3.183700
				CHANNELS 3 Xrotation Yrotation Zrotation
				End Site
				{
					OFFSET -0.498041 20.188049 0.000000
				}
			}
		}
		JOINT RightUpLeg
		{
			OFFSET -11.717000 -9.376404 -2.439400
			CHANNELS 3 Xrotation Yrotation Zrotation
			JOINT RightLeg
			{
				OFFSET -0.003241 -32.846912 2.110600
				CHANNELS 3 Xrotation Yrotation Zrotation
				JOINT RightFoot
				{
					OFFSET 0.003241 -32.065136 -0.570500
					CHANNELS 3 Xrotation Yrotation Zrotation
					JOINT RightToeBase
					{
						OFFSET -0.728300 -11.045901 13.180700
						CHANNELS 3 Xrotation Yrotation Zrotation
						End Site
						{
							OFFSET 0.000000 17.212593 0.000000
						}
					}
				}
				JOINT RightPantLeg
				{
					OFFSET 0.008142 -16.708982 -3.143700
					CHANNELS 3 Xrotation Yrotation Zrotation
					End Site
					{
						OFFSET 0.605088 24.528715 0.000000
					}
				}
			}
			JOINT Right_Butt
			{
				OFFSET 6.630732 1.326584 -3.183700
				CHANNELS 3 Xrotation Yrotation Zrotation
				End Site
				{
					OFFSET 0.498015 20.188240 0.000000
				}
			}
		}
	}
	JOINT Spine
	{
		OFFSET -0.062400 7.848404 3.918300
		CHANNELS 3 Xrotation Yrotation Zrotation
		JOINT Spine1
		{
			OFFSET -0.072800 11.422302 0.713400
			CHANNELS 3 Xrotation Yrotation Zrotation
			JOINT Spine2
			{
				OFFSET -0.083200 13.054001 -1.931600
				CHANNELS 3 Xrotation Yrotation Zrotation
				JOINT Neck
				{
					OFFSET -0.092200 14.121796 -5.138800
					CHANNELS 3 Xrotation Yrotation Zrotation
					JOINT Head
					{
						OFFSET 0.000200 10.447403 -0.842000
						CHANNELS 3 Xrotation Yrotation Zrotation
						JOINT Visor
						{
							OFFSET 0.457100 25.671204 16.550400
							CHANNELS 3 Xrotation Yrotation Zrotation
							End Site
							{
								OFFSET 0.000000 26.061493 0.000000
							}
						}
						JOINT HairMidA
						{
							OFFSET 0.459400 31.585403 8.437400
							CHANNELS 3 Xrotation Yrotation Zrotation
							End Site
							{
								OFFSET 0.000000 26.061493 0.000000
							}
						}
						JOINT HairMidB
						{
							OFFSET 0.464000 33.309204 -8.389700
							CHANNELS 3 Xrotation Yrotation Zrotation
							End Site
							{
								OFFSET 0.000000 26.061493 0.000000
							}
						}
						JOINT HairMidC
						{
							OFFSET 0.466600 27.991196 -17.375099
							CHANNELS 3 Xrotation Yrotation Zrotation
							End Site
							{
								OFFSET 0.000000 26.061493 0.000000
							}
						}
						JOINT HairMidD
						{
							OFFSET 0.467700 17.888092 -21.169500
							CHANNELS 3 Xrotation Yrotation Zrotation
							End Site
							{
								OFFSET 0.000000 26.061493 0.000000
							}
						}
						JOINT HairMidE
						{
							OFFSET 5.325700 3.514603 -14.369699
							CHANNELS 3 Xrotation Yrotation Zrotation
							End Site
							{
								OFFSET 0.000000 26.061493 0.000000
							}
						}
						JOINT HairMidF
						{
							OFFSET -4.394100 3.514603 -14.372400
							CHANNELS 3 Xrotation Yrotation Zrotation
							End Site
							{
								OFFSET 0.000000 26.061493 0.000000
							}
						}
						JOINT HairLeftA
						{
							OFFSET 15.319900 25.746506 2.623300
							CHANNELS 3 Xrotation Yrotation Zrotation
							End Site
							{
								OFFSET 0.000000 26.061493 0.000000
							}
						}
						JOINT HairLeftB
						{
							OFFSET 12.619500 29.289398 -8.731499
							CHANNELS 3 Xrotation Yrotation Zrotation
							End Site
							{
								OFFSET 0.000000 26.061493 0.000000
							}
						}
						JOINT HairLeftC
						{
							OFFSET 15.714800 15.959900 2.909800
							CHANNELS 3 Xrotation Yrotation Zrotation
							End Site
							{
								OFFSET 0.000000 26.061493 0.000000
							}
						}
						JOINT HairLeftD
						{
							OFFSET 16.101700 18.437408 -7.553200
							CHANNELS 3 Xrotation Yrotation Zrotation
							End Site
							{
								OFFSET 0.000000 26.061493 0.000000
							}
						}
						JOINT HairLeftE
						{
							OFFSET 9.731900 17.915009 -18.316799
							CHANNELS 3 Xrotation Yrotation Zrotation
							End Site
							{
								OFFSET 0.000000 26.061493 0.000000
							}
						}
						JOINT HairLeftF
						{
							OFFSET 11.204300 4.953598 -9.668100
							CHANNELS 3 Xrotation Yrotation Zrotation
							End Site
							{
								OFFSET 0.000000 26.061493 0.000000
							}
						}
						JOINT HairRightA
						{
							OFFSET -14.397900 25.746307 2.615100
							CHANNELS 3 Xrotation Yrotation Zrotation
							End Site
							{
								OFFSET 0.000000 26.061493 0.000000
							}
						}
						JOINT HairRightB
						{
							OFFSET -11.691200 29.289200 -8.738199
							CHANNELS 3 Xrotation Yrotation Zrotation
							End Site
							{
								OFFSET 0.000000 26.061493 0.000000
							}
						}
						JOINT HairRightC
						{
							OFFSET -14.792900 15.959702 2.901400
							CHANNELS 3 Xrotation Yrotation Zrotation
							End Site
							{
								OFFSET 0.000000 26.061493 0.000000
							}
						}
						JOINT HairRightD
						{
							OFFSET -15.174000 18.437195 -7.561900
							CHANNELS 3 Xrotation Yrotation Zrotation
							End Site
							{
								OFFSET 0.000000 26.061493 0.000000
							}
						}
						JOINT HairRightE
						{
							OFFSET -8.798200 17.914902 -18.322001
							CHANNELS 3 Xrotation Yrotation Zrotation
							End Site
							{
								OFFSET 0.000000 26.061493 0.000000
							}
						}
						JOINT HairRightF
						{
							OFFSET -10.275200 4.953506 -9.674099
							CHANNELS 3 Xrotation Yrotation Zrotation
							End Site
							{
								OFFSET 0.000000 26.061493 0.000000
							}
						}
					}
				}
				JOINT LeftShoulder
				{
					OFFSET 5.133500 7.341202 -1.867600
					CHANNELS 3 Xrotation Yrotation Zrotation
					JOINT LeftArm
					{
						OFFSET 8.072663 0.936867 -2.176600
						CHANNELS 3 Xrotation Yrotation Zrotation
						JOINT LeftForeArm
						{
							OFFSET 31.271999 0.000000 0.000000
							CHANNELS 3 Xrotation Yrotation Zrotation
							JOINT LeftHand
							{
								OFFSET 31.771030 0.000000 0.000000
								CHANNELS 3 Xrotation Yrotation Zrotation
								JOINT LeftHandThumb1
								{
									OFFSET 2.886520 -2.557846 4.416640
									CHANNELS 3 Xrotation Yrotation Zrotation
									JOINT LeftHandThumb2
									{
										OFFSET 2.371025 -1.368912 1.368911
										CHANNELS 3 Xrotation Yrotation Zrotation
										JOINT LeftHandThumb3
										{
											OFFSET 2.243378 -1.295212 1.295213
											CHANNELS 3 Xrotation Yrotation Zrotation
											End Site
											{
												OFFSET -0.332611 2.876945 0.020015
											}
										}
									}
								}
								JOINT LeftHandIndex1
								{
									OFFSET 8.568985 -0.641945 3.119977
									CHANNELS 3 Xrotation Yrotation Zrotation
									JOINT LeftHandIndex2
									{
										OFFSET 3.348503 0.000000 0.000000
										CHANNELS 3 Xrotation Yrotation Zrotation
										JOINT LeftHandIndex3
										{
											OFFSET 3.314552 0.000000 0.000000
											CHANNELS 3 Xrotation Yrotation Zrotation
											End Site
											{
												OFFSET -1.032898 3.075485 0.678796
											}
										}
									}
								}
								JOINT LeftHandMiddle1
								{
									OFFSET 8.124603 0.000000 0.000000
									CHANNELS 3 Xrotation Yrotation Zrotation
									JOINT LeftHandMiddle2
									{
										OFFSET 4.166275 0.000000 0.000000
										CHANNELS 3 Xrotation Yrotation Zrotation
										JOINT LeftHandMiddle3
										{
											OFFSET 3.018135 0.000000 0.000000
											CHANNELS 3 Xrotation Yrotation Zrotation
											End Site
											{
												OFFSET -1.032700 2.767982 0.617226
											}
										}
									}
								}
								JOINT LeftHandRing1
								{
									OFFSET 8.571686 -0.031357 -2.884048
									CHANNELS 3 Xrotation Yrotation Zrotation
									JOINT LeftHandRing2
									{
										OFFSET 3.671181 0.000000 0.000000
										CHANNELS 3 Xrotation Yrotation Zrotation
										JOINT LeftHandRing3
										{
											OFFSET 2.728851 0.000000 0.000000
											CHANNELS 3 Xrotation Yrotation Zrotation
											End Site
											{
												OFFSET -0.815796 2.539223 0.577389
											}
										}
									}
								}
								JOINT LeftHandPinky1
								{
									OFFSET 7.854515 -0.675232 -5.213020
									CHANNELS 3 Xrotation Yrotation Zrotation
									JOINT LeftHandPinky2
									{
										OFFSET 3.068596 0.000000 0.000000
										CHANNELS 3 Xrotation Yrotation Zrotation
										JOINT LeftHandPinky3
										{
											OFFSET 2.396042 0.000000 0.000000
											CHANNELS 3 Xrotation Yrotation Zrotation
											End Site
											{
												OFFSET -0.524597 2.267998 0.567429
											}
										}
									}
								}
							}
							JOINT LeftSleeve
							{
								OFFSET 19.684509 -0.200119 0.476146
								CHANNELS 3 Xrotation Yrotation Zrotation
								End Site
								{
									OFFSET -0.031017 25.731133 -0.002868
								}
							}
						}
					}
				}
				JOINT RightShoulder
				{
					OFFSET -4.395900 7.341202 -1.870200
					CHANNELS 3 Xrotation Yrotation Zrotation
					JOINT RightArm
					{
						OFFSET -8.071453 0.936867 -2.181100
						CHANNELS 3 Xrotation Yrotation Zrotation
						JOINT RightForeArm
						{
							OFFSET -31.272011 0.000000 0.000000
							CHANNELS 3 Xrotation Yrotation Zrotation
							JOINT RightHand
							{
								OFFSET -31.771019 0.000000 0.000000
								CHANNELS 3 Xrotation Yrotation Zrotation
								JOINT RightHandThumb1
								{
									OFFSET -2.886520 -2.557808 4.416626
									CHANNELS 3 Xrotation Yrotation Zrotation
									JOINT RightHandThumb2
									{
										OFFSET -2.371056 -1.368927 1.368928
										CHANNELS 3 Xrotation Yrotation Zrotation
										JOINT RightHandThumb3
										{
											OFFSET -2.243362 -1.295204 1.295206
											CHANNELS 3 Xrotation Yrotation Zrotation
											End Site
											{
												OFFSET 0.332642 2.876938 0.020047
											}
										}
									}
								}
								JOINT RightHandIndex1
								{
									OFFSET -8.568993 -0.641953 3.120017
									CHANNELS 3 Xrotation Yrotation Zrotation
									JOINT RightHandIndex2
									{
										OFFSET -3.348518 0.000000 0.000000
										CHANNELS 3 Xrotation Yrotation Zrotation
										JOINT RightHandIndex3
										{
											OFFSET -3.314552 0.000000 0.000000
											CHANNELS 3 Xrotation Yrotation Zrotation
											End Site
											{
												OFFSET 1.032898 3.075478 0.678804
											}
										}
									}
								}
								JOINT RightHandMiddle1
								{
									OFFSET -8.124588 0.000000 0.000000
									CHANNELS 3 Xrotation Yrotation Zrotation
									JOINT RightHandMiddle2
									{
										OFFSET -4.166275 0.000000 0.000000
										CHANNELS 3 Xrotation Yrotation Zrotation
										JOINT RightHandMiddle3
										{
											OFFSET -3.018097 0.000000 0.000000
											CHANNELS 3 Xrotation Yrotation Zrotation
											End Site
											{
												OFFSET 1.032700 2.767937 0.617197
											}
										}
									}
								}
								JOINT RightHandRing1
								{
									OFFSET -8.571747 -0.031349 -2.884061
									CHANNELS 3 Xrotation Yrotation Zrotation
									JOINT RightHandRing2
									{
										OFFSET -3.671204 0.000000 0.000000
										CHANNELS 3 Xrotation Yrotation Zrotation
										JOINT RightHandRing3
										{
											OFFSET -2.728874 0.000000 0.000000
											CHANNELS 3 Xrotation Yrotation Zrotation
											End Site
											{
												OFFSET 0.815804 2.539261 0.577413
											}
										}
									}
								}
								JOINT RightHandPinky1
								{
									OFFSET -7.854561 -0.675247 -5.212970
									CHANNELS 3 Xrotation Yrotation Zrotation
									JOINT RightHandPinky2
									{
										OFFSET -3.068550 0.000000 0.000000
										CHANNELS 3 Xrotation Yrotation Zrotation
										JOINT RightHandPinky3
										{
											OFFSET -2.395981 0.000000 0.000000
											CHANNELS 3 Xrotation Yrotation Zrotation
											End Site
											{
												OFFSET 0.524605 2.267952 0.567413
											}
										}
									}
								}
							}
							JOINT RightSleeve
							{
								OFFSET -19.684753 -0.200165 0.476065
								CHANNELS 3 Xrotation Yrotation Zrotation
								End Site
								{
									OFFSET 0.031342 25.731255 -0.002917
								}
							}
						}
					}
				}
				JOINT Hood
				{
					OFFSET 0.369700 14.447800 -5.317800
					CHANNELS 3 Xrotation Yrotation Zrotation
					JOINT Hood1
					{
						OFFSET 0.001700 -5.553802 -5.895100
						CHANNELS 3 Xrotation Yrotation Zrotation
						JOINT Hood2
						{
							OFFSET -0.000200 -8.380501 0.763600
							CHANNELS 3 Xrotation Yrotation Zrotation
							End Site
							{
								OFFSET 0.000000 8.415215 0.000000
							}
						}
					}
				}
				JOINT Left_Breast
				{
					OFFSET 5.682500 3.120102 3.188800
					CHANNELS 3 Xrotation Yrotation Zrotation
					End Site
					{
						OFFSET 0.000000 10.528564 0.000000
					}
				}
				JOINT Right_Breast
				{
					OFFSET -4.947600 3.120102 3.185900
					CHANNELS 3 Xrotation Yrotation Zrotation
					End Site
					{
						OFFSET 0.000000 10.528564 0.000000
					}
				}
				JOINT Whistle
				{
					OFFSET 0.368200 11.471298 0.095400
					CHANNELS 3 Xrotation Yrotation Zrotation
					JOINT Whistle1
					{
						OFFSET -0.002000 -6.349899 7.479800
						CHANNELS 3 Xrotation Yrotation Zrotation
						JOINT Whistle2
						{
							OFFSET -0.001300 -8.217598 4.717600
							CHANNELS 3 Xrotation Yrotation Zrotation
							End Site
							{
								OFFSET 0.000000 9.475479 0.000000
							}
						}
					}
				}
			}
		}
		JOINT Belly
		{
			OFFSET 0.212400 1.593002 3.163700
			CHANNELS 3 Xrotation Yrotation Zrotation
			End Site
			{
				OFFSET 0.000000 7.496635 0.000000
			}
		}
	}
	JOINT FitGrandmaFacialAnim_Joint
	{
		OFFSET 1.150000 -86.211197 -1.220100
		CHANNELS 3 Xrotation Yrotation Zrotation
		End Site
		{
			OFFSET 0.000000 31.666618 0.000000
		}
	}
}
MOTION
Frames: 4
Frame Time: 0.016667
-12.295589 14.777771 -71.081879 -87.121262 26.475821 4.719611 0.000000 -0.000000 -0.000000 -58.739620 12.128770 32.878683 69.602851 10.723239 -2.442029 11.977106 9.880911 -8.056911 -0.000000 -0.000000 -0.000000 -0.000001 0.000001 0.000002 0.000000 0.000001 0.000000 -49.058298 1.826863 -37.708115 111.313731 2.637898 5.375749 17.848077 1.120953 30.738034 -0.000000 -0.000000 0.000002 0.000001 -0.000001 -0.000000 0.000006 -0.000000 -0.000000 53.994875 11.566072 -2.407352 20.535748 3.211057 0.186198 20.612227 2.862304 0.333960 6.354675 0.273869 -2.216744 32.669208 -1.249299 -2.725182 -0.000000 0.000003 0.000003 -0.000000 0.000003 0.000003 -0.000000 0.000003 0.000003 -0.000000 0.000003 0.000003 -0.000000 0.000003 0.000003 -0.000000 0.000003 0.000003 -0.000000 0.000003 0.000003 -0.000000 0.000003 0.000003 -0.000000 0.000003 0.000003 -0.000000 0.000003 0.000003 -0.000000 0.000003 0.000003 -0.000000 0.000003 0.000003 -0.000000 0.000003 0.000003 -0.000000 0.000003 0.000003 -0.000000 0.000003 0.000003 -0.000000 0.000003 0.000003 -0.000000 0.000003 0.000003 -0.000000 0.000003 0.000003 -0.000000 0.000003 0.000003 0.690092 -7.698573 -13.129604 -23.121930 -24.042643 -24.824232 -0.000044 -63.058806 -0.000046 -1.509099 -20.163895 -5.466359 -8.685594 -15.954383 1.209984 21.854500 36.310836 -10.832596 -0.000001 0.000001 0.000001 0.653216 -15.996955 0.940948 1.493547 3.908503 -41.813971 0.000003 0.000001 -0.000001 0.176380 0.770530 4.717964 1.760998 4.187607 -45.600938 -0.000003 -0.000001 -0.000005 -0.158555 11.618683 1.853050 2.336931 4.681194 -53.039499 -0.000000 0.000001 0.000001 5.097364 24.546788 -12.359220 2.096982 4.491167 -50.039199 -0.000001 0.000000 0.000000 0.000000 0.000001 0.000002 0.136775 13.961792 14.788458 -26.720453 -13.516580 33.282118 0.000011 41.763048 -0.000018 -11.101749 -25.897361 44.633920 -8.583322 16.136749 -7.178712 7.869602 -18.273642 9.753288 -0.000000 0.000002 0.000000 1.587531 7.438665 -9.026633 0.644885 -2.366455 30.483923 -0.000001 -0.000000 -0.000000 2.008388 2.097531 -33.232801 0.823274 -2.645904 34.561686 -0.000004 -0.000003 0.000001 -0.161313 -5.730958 -3.494303 1.189552 -3.110738 41.846045 -0.000000 0.000001 0.000003 -0.080022 -27.024012 -1.328633 1.055491 -2.954400 39.312158 -0.000004 0.000002 0.000000 0.000002 0.000000 0.000002 0.000001 0.000000 -0.000003 0.000001 0.000000 -0.000003 0.000001 0.000000 -0.000003 0.000001 0.000000 -0.000003 0.000001 0.000000 -0.000003 0.000001 0.000000 -0.000001 0.000000 0.000001 0.000000 0.000000 0.000001 0.000000 -0.000002 0.000003 -0.000003 0.000000 -0.000000 -0.000000 
-12.236783 14.317215 -72.337494 -91.529808 26.089648 5.189270 0.000000 -0.000001 -0.000000 -55.136244 11.254085 32.760558 67.826688 10.281856 -0.994228 13.635439 9.546053 -5.930844 0.000000 0.000001 -0.000001 0.000000 0.000001 -0.000000 -0.000002 0.000002 -0.000000 -43.911932 1.990974 -34.694830 109.488499 1.921750 3.091813 16.947369 0.369568 30.970827 -0.000001 -0.000002 0.000002 0.000001 -0.000001 -0.000000 -0.000005 -0.000001 -0.000000 53.866031 12.484684 -1.521556 20.987660 3.430239 0.332315 21.083093 3.010461 0.480117 6.011283 0.280392 -2.502189 29.147545 -1.772882 -3.475375 0.000002 -0.000003 -0.000002 0.000002 -0.000003 -0.000002 0.000002 -0.000003 -0.000002 0.000002 -0.000003 -0.000002 0.000002 -0.000003 -0.000002 0.000002 -0.000003 -0.000002 0.000002 -0.000003 -0.000002 0.000002 -0.000003 -0.000002 0.000002 -0.000003 -0.000002 0.000002 -0.000003 -0.000002 0.000002 -0.000003 -0.000002 0.000002 -0.000003 -0.000002 0.000002 -0.000003 -0.000002 0.000002 -0.000003 -0.000002 0.000002 -0.000003 -0.000002 0.000002 -0.000003 -0.000002 0.000002 -0.000003 -0.000002 0.000002 -0.000003 -0.000002 0.000002 -0.000003 -0.000002 0.654635 -7.640292 -13.060573 -19.361652 -24.125229 -21.499021 -0.000043 -64.350791 -0.000034 -16.742496 -19.468568 -13.423405 -8.647221 -15.819234 1.255083 21.674202 36.224929 -10.484474 -0.000000 0.000001 -0.000001 0.555427 -15.865698 0.644541 1.453098 3.862930 -41.217098 0.000001 -0.000001 0.000000 0.167789 0.758909 4.236375 1.725437 4.152571 -45.111965 0.000000 -0.000001 -0.000002 -0.074931 11.507229 1.341962 2.289202 4.644999 -52.452147 0.000002 -0.000002 -0.000004 5.165613 24.212520 -12.763503 2.067868 4.466687 -49.666342 -0.000001 -0.000005 -0.000000 0.000003 0.000001 0.000003 0.281185 14.030639 13.544994 -21.025802 -14.046615 33.984364 0.000003 42.419696 -0.000001 -13.856790 -29.911212 39.389571 -8.524660 16.035848 -7.103579 7.804529 -18.123446 9.475635 0.000001 0.000001 -0.000001 1.572318 7.449087 -8.920430 0.613301 -2.311988 29.709817 -0.000002 -0.000001 0.000003 1.979201 2.094974 -32.626933 0.792734 -2.601082 33.894418 -0.000004 0.000000 0.000004 -0.150395 -5.701278 -3.350006 1.148417 -3.064235 41.082113 -0.000000 -0.000002 0.000003 -0.000284 -26.834539 -1.130562 1.024676 -2.916434 38.710579 -0.000001 0.000000 -0.000000 0.000001 -0.000002 -0.000001 -0.000001 -0.000002 0.000002 -0.000001 -0.000002 0.000002 -0.000001 -0.000002 0.000002 -0.000001 -0.000002 0.000002 -0.000001 -0.000002 0.000002 -0.000001 -0.000002 0.000002 -0.000001 -0.000001 0.000000 -0.000001 -0.000001 0.000000 -0.000003 0.000002 -0.000001 0.000000 -0.000001 -0.000000 
-12.127905 13.915985 -73.549919 -96.164330 25.661181 5.836266 0.000000 0.000002 0.000000 -51.037229 10.756239 33.047768 65.882543 9.578785 0.348837 15.354064 8.552892 -4.956954 0.000002 0.000000 0.000000 -0.000000 0.000002 0.000001 0.000004 -0.000002 0.000002 -38.846940 2.420345 -31.816736 108.145500 0.636298 0.692804 15.936590 -0.387824 30.589740 0.000001 0.000001 -0.000001 0.000002 -0.000001 0.000001 0.000005 0.000001 0.000000 53.706781 13.065308 -0.560310 21.302515 3.531567 0.486726 21.413451 3.045616 0.639498 5.772048 0.276193 -2.724592 26.591366 -2.420393 -3.858273 -0.000001 0.000000 0.000001 -0.000001 0.000000 0.000001 -0.000001 0.000000 0.000001 -0.000001 0.000000 0.000001 -0.000001 0.000000 0.000001 -0.000001 0.000000 0.000001 -0.000001 0.000000 0.000001 -0.000001 0.000000 0.000001 -0.000001 0.000000 0.000001 -0.000001 0.000000 0.000001 -0.000001 0.000000 0.000001 -0.000001 0.000000 0.000001 -0.000001 0.000000 0.000001 -0.000001 0.000000 0.000001 -0.000001 0.000000 0.000001 -0.000001 0.000000 0.000001 -0.000001 0.000000 0.000001 -0.000001 0.000000 0.000001 -0.000001 0.000000 0.000001 0.618663 -7.705185 -13.035389 -16.051283 -24.091788 -18.542282 -0.000050 -64.438948 -0.000046 -29.438313 -14.660890 -23.712767 -8.606934 -15.678289 1.302617 21.493736 36.137800 -10.137175 -0.000000 0.000001 0.000001 0.451729 -15.724106 0.326283 1.413707 3.817590 -40.628970 0.000001 -0.000000 0.000001 0.157837 0.750896 3.729260 1.690771 4.117822 -44.631103 0.000001 0.000001 0.000001 0.010147 11.394060 0.806367 2.242482 4.608819 -51.872951 0.000002 0.000000 -0.000001 5.234598 23.869479 -13.188037 2.039532 4.442548 -49.301699 -0.000002 -0.000001 -0.000000 0.000001 0.000000 0.000001 0.368021 14.232613 12.568262 -15.163285 -12.817758 34.004459 -0.000002 41.556903 -0.000002 -18.970106 -29.594431 30.817629 -8.466256 15.928995 -7.031893 7.746152 -17.979949 9.203212 -0.000001 -0.000000 0.000001 1.531153 7.435912 -8.676667 0.587241 -2.265770 29.057605 0.000000 -0.000002 -0.000001 1.934917 2.080029 -31.865401 0.767985 -2.563894 33.345134 0.000004 0.000001 -0.000003 -0.131346 -5.679940 -3.068231 1.114177 -3.024575 40.437353 -0.000003 0.000002 0.000002 0.140578 -26.599525 -0.778693 1.000171 -2.885632 38.226451 -0.000000 -0.000001 0.000000 0.000000 -0.000001 0.000000 0.000001 -0.000001 0.000001 0.000001 -0.000001 0.000001 0.000001 -0.000001 0.000001 0.000001 -0.000001 0.000001 0.000001 -0.000001 0.000001 0.000000 -0.000001 0.000003 -0.000000 0.000000 0.000003 -0.000000 0.000000 0.000003 0.000001 0.000002 -0.000001 0.000000 0.000002 0.000000 
-12.001731 13.599167 -74.680969 -100.968528 25.319026 6.584456 0.000000 -0.000003 -0.000000 -46.707234 10.502059 33.828035 64.065795 8.885202 1.600568 16.492229 7.031962 -5.187219 -0.000001 -0.000000 0.000000 -0.000000 -0.000001 0.000001 0.000004 -0.000002 -0.000000 -33.593012 2.810957 -29.349961 107.076719 -1.246829 -1.612205 14.925579 -0.978241 30.270060 -0.000002 -0.000002 0.000000 -0.000002 0.000000 -0.000001 -0.000004 0.000001 -0.000001 53.341558 13.229190 0.476562 21.392885 3.485088 0.638481 21.512842 2.946441 0.804815 5.701515 0.269790 -2.859049 25.666234 -3.057671 -3.930412 0.000001 -0.000002 0.000000 0.000001 -0.000002 0.000000 0.000001 -0.000002 0.000000 0.000001 -0.000002 0.000000 0.000001 -0.000002 0.000000 0.000001 -0.000002 0.000000 0.000001 -0.000002 0.000000 0.000001 -0.000002 0.000000 0.000001 -0.000002 0.000000 0.000001 -0.000002 0.000000 0.000001 -0.000002 0.000000 0.000001 -0.000002 0.000000 0.000001 -0.000002 0.000000 0.000001 -0.000002 0.000000 0.000001 -0.000002 0.000000 0.000001 -0.000002 0.000000 0.000001 -0.000002 0.000000 0.000001 -0.000002 0.000000 0.000001 -0.000002 0.000000 0.583242 -7.873915 -13.009929 -13.224166 -24.020110 -16.352822 -0.000030 -63.453735 -0.000041 -35.332190 -4.373206 -31.544641 -8.564880 -15.531804 1.352408 21.313238 36.049472 -9.790850 0.000001 0.000002 0.000001 0.342717 -15.572447 -0.012852 1.375380 3.772536 -40.049641 -0.000001 -0.000001 0.000004 0.146530 0.746356 3.197617 1.656951 4.083382 -44.158273 0.000001 -0.000001 -0.000001 0.096283 11.279226 0.247322 2.196758 4.572719 -51.301913 -0.000000 0.000000 0.000000 5.303481 23.518133 -13.631755 2.011983 4.418777 -48.945115 0.000000 -0.000000 0.000000 -0.000000 0.000000 0.000003 0.413006 14.399159 11.899828 -8.989452 -9.774895 33.560182 0.000003 39.122238 -0.000003 -23.648635 -24.014320 23.764224 -8.408923 15.818488 -6.963141 7.693859 -17.841817 8.937314 -0.000000 0.000004 -0.000002 1.460721 7.396304 -8.275150 0.567193 -2.229307 28.546369 -0.000003 0.000000 0.000001 1.874017 2.050739 -30.926834 0.749634 -2.535816 32.932638 -0.000001 0.000000 0.000000 -0.103156 -5.668204 -2.628684 1.087580 -2.993125 39.930703 -0.000002 -0.000002 -0.000001 0.348473 -26.329088 -0.252842 0.982748 -2.863397 37.878962 -0.000001 -0.000002 0.000000 0.000000 -0.000001 0.000000 -0.000001 0.000000 0.000001 -0.000001 0.000000 0.000001 -0.000001 0.000000 0.000001 -0.000001 0.000000 0.000001 -0.000001 0.000000 0.000001 -0.000001 0.000000 0.000001 -0.000001 -0.000001 0.000001 -0.000001 -0.000001 0.000001 0.000001 0.000000 -0.000003 0.000000 -0.000003 -0.000000 
